Coordinates
version=1
nRows=5
nColumns=40
inDegrees=yes

Units are S.I. units (second, meters, Newtons, ...)
Angles are in degrees.

endheader
time	pelvis_tilt	pelvis_list	pelvis_rotation	pelvis_tx	pelvis_ty	pelvis_tz	hip_flexion_r	hip_adduction_r	hip_rotation_r	knee_angle_r	knee_angle_r_beta	ankle_angle_r	subtalar_angle_r	mtp_angle_r	hip_flexion_l	hip_adduction_l	hip_rotation_l	knee_angle_l	knee_angle_l_beta	ankle_angle_l	subtalar_angle_l	mtp_angle_l	lumbar_extension	lumbar_bending	lumbar_rotation	arm_flex_r	arm_add_r	arm_rot_r	elbow_flex_r	pro_sup_r	wrist_flex_r	wrist_dev_r	arm_flex_l	arm_add_l	arm_rot_l	elbow_flex_l	pro_sup_l	wrist_flex_l	wrist_dev_l
     20.75000000	     -3.72913454	     -6.06114711	      1.68052562	      0.84641384	      0.93118040	      0.49739441	      7.86593829	      6.30688634	    -13.71234255	     12.41194404	     12.41194404	     10.44825096	     -0.60079181	     -3.79750822	     35.74320559	    -11.78346026	      0.36077604	     48.41360584	     48.41360584	      9.13795408	    -19.08985788	     17.34062568	     -8.86366344	      5.93871230	      2.76894876	     24.34563645	    -16.49475886	     -6.51445924	     63.94972538	     45.29940633	      0.00000000	      0.00000000	      3.24556844	     -6.10095244	     -1.69732361	     23.49360245	     45.68314298	      0.00000000	      0.00000000
     20.76200000	     -3.89559080	     -5.82891477	      1.96271378	      0.84523182	      0.93096151	      0.49686149	      7.49486891	      6.05472269	    -13.85693801	     12.19584210	     12.19584210	     10.75224088	     -0.56660960	     -3.89552064	     35.85753215	    -10.79098774	      0.61117160	     44.37179900	     44.37179900	      9.03385918	    -18.74809443	     16.91509873	     -8.83052426	      5.76162304	      2.57659319	     26.16285337	    -16.50194212	     -6.87635231	     65.50958398	     45.27060346	      0.00000000	      0.00000000	      2.19466658	     -5.97567896	     -1.44330426	     23.10212963	     45.61691467	      0.00000000	      0.00000000
     20.77400000	     -4.05358916	     -5.70192967	      2.23119287	      0.84419541	      0.93057196	      0.49632931	      7.14875161	      5.87232004	    -14.25263359	     12.07480409	     12.07480409	     11.11393350	     -0.07757849	     -4.11904603	     35.78335697	     -9.95039196	      0.95429276	     40.17374002	     40.17374002	      7.92423466	    -18.14458861	     13.84626611	     -8.83907177	      5.65481683	      2.65384770	     27.37794369	    -16.67838063	     -7.57993026	     67.87548755	     45.23196801	      0.00000000	      0.00000000	      1.07798713	     -5.92818061	     -0.78458603	     23.39708435	     45.47032257	      0.00000000	      0.00000000
     20.78600000	     -4.19219071	     -5.53206007	      2.45098998	      0.84321047	      0.93016032	      0.49575326	      6.77791843	      5.69224507	    -14.32981123	     11.93995769	     11.93995769	     11.44062760	     -0.15768571	     -4.21010691	     35.74949405	     -9.12476429	      1.31735080	     36.41788305	     36.41788305	      7.96394912	    -16.82594916	     13.71275934	     -8.78730198	      5.51434012	      2.71022136	     29.04468420	    -16.80990419	     -7.84714567	     69.01353511	     45.21294450	      0.00000000	      0.00000000	      0.14389964	     -5.82927402	     -0.63587828	     23.08506379	     45.42693224	      0.00000000	      0.00000000
     20.79800000	     -4.29235825	     -5.45690882	      2.68746844	      0.84237328	      0.92967549	      0.49510122	      6.35328311	      5.58382649	    -14.55218940	     11.80359952	     11.80359952	     11.77109313	      0.09412794	     -4.31307291	     35.66403903	     -8.49499171	      1.62861216	     32.93279657	     32.93279657	      7.85614955	    -15.02896839	     12.82895235	     -8.83271794	      5.50651993	      2.51364798	     30.63817340	    -16.68970102	     -8.23480543	     70.64706210	     45.18291600	      0.00000000	      0.00000000	     -0.90849858	     -5.74045745	     -0.41823401	     23.01156040	     45.36673347	      0.00000000	      0.00000000
